<?xml version="1.0" encoding="UTF-8" ?>
<svg version="1.1" width="72" height="72" xmlns="http://www.w3.org/2000/svg" shape-rendering="crispEdges">
<rect x="53" y="8" width="1" height="1" fill="#AA8C94" />
<rect x="52" y="9" width="1" height="1" fill="#AA8C94" />
<rect x="53" y="9" width="1" height="1" fill="#DFCBBF" />
<rect x="54" y="9" width="1" height="1" fill="#AA8C94" />
<rect x="51" y="10" width="1" height="1" fill="#AA8C94" />
<rect x="52" y="10" width="1" height="1" fill="#DFCBBF" />
<rect x="53" y="10" width="1" height="1" fill="#FFFFFF" />
<rect x="54" y="10" width="1" height="1" fill="#DFCBBF" />
<rect x="55" y="10" width="1" height="1" fill="#AA8C94" />
<rect x="52" y="11" width="1" height="1" fill="#AA8C94" />
<rect x="53" y="11" width="1" height="1" fill="#FFFFFF" />
<rect x="54" y="11" width="1" height="1" fill="#AA8C94" />
<rect x="53" y="12" width="1" height="1" fill="#FFFFFF" />
<rect x="53" y="13" width="1" height="1" fill="#AA8C94" />
<rect x="10" y="20" width="1" height="1" fill="#AA8C94" />
<rect x="9" y="21" width="1" height="1" fill="#AA8C94" />
<rect x="10" y="21" width="1" height="1" fill="#DFCBBF" />
<rect x="11" y="21" width="1" height="1" fill="#AA8C94" />
<rect x="8" y="22" width="1" height="1" fill="#AA8C94" />
<rect x="9" y="22" width="1" height="1" fill="#DFCBBF" />
<rect x="10" y="22" width="1" height="1" fill="#FFFFFF" />
<rect x="11" y="22" width="1" height="1" fill="#DFCBBF" />
<rect x="12" y="22" width="1" height="1" fill="#AA8C94" />
<rect x="9" y="23" width="1" height="1" fill="#AA8C94" />
<rect x="10" y="23" width="1" height="1" fill="#FFFFFF" />
<rect x="11" y="23" width="1" height="1" fill="#AA8C94" />
<rect x="10" y="24" width="1" height="1" fill="#FFFFFF" />
<rect x="10" y="25" width="1" height="1" fill="#AA8C94" />
<rect x="50" y="34" width="1" height="1" fill="#AA8C94" />
<rect x="49" y="35" width="1" height="1" fill="#AA8C94" />
<rect x="50" y="35" width="1" height="1" fill="#DFCBBF" />
<rect x="51" y="35" width="1" height="1" fill="#AA8C94" />
<rect x="48" y="36" width="1" height="1" fill="#AA8C94" />
<rect x="49" y="36" width="1" height="1" fill="#DFCBBF" />
<rect x="50" y="36" width="1" height="1" fill="#FFFFFF" />
<rect x="51" y="36" width="1" height="1" fill="#DFCBBF" />
<rect x="52" y="36" width="1" height="1" fill="#AA8C94" />
<rect x="49" y="37" width="1" height="1" fill="#AA8C94" />
<rect x="50" y="37" width="1" height="1" fill="#FFFFFF" />
<rect x="51" y="37" width="1" height="1" fill="#AA8C94" />
<rect x="50" y="38" width="1" height="1" fill="#FFFFFF" />
<rect x="50" y="39" width="1" height="1" fill="#AA8C94" />
<rect x="2" y="43" width="1" height="1" fill="#AA8C94" />
<rect x="1" y="44" width="1" height="1" fill="#AA8C94" />
<rect x="2" y="44" width="1" height="1" fill="#DFCBBF" />
<rect x="3" y="44" width="1" height="1" fill="#AA8C94" />
<rect x="0" y="45" width="1" height="1" fill="#AA8C94" />
<rect x="1" y="45" width="1" height="1" fill="#DFCBBF" />
<rect x="2" y="45" width="1" height="1" fill="#FFFFFF" />
<rect x="3" y="45" width="1" height="1" fill="#DFCBBF" />
<rect x="4" y="45" width="1" height="1" fill="#AA8C94" />
<rect x="1" y="46" width="1" height="1" fill="#AA8C94" />
<rect x="2" y="46" width="1" height="1" fill="#FFFFFF" />
<rect x="3" y="46" width="1" height="1" fill="#AA8C94" />
<rect x="2" y="47" width="1" height="1" fill="#FFFFFF" />
<rect x="2" y="48" width="1" height="1" fill="#AA8C94" />
<rect x="15" y="61" width="1" height="1" fill="#AA8C94" />
<rect x="14" y="62" width="1" height="1" fill="#AA8C94" />
<rect x="15" y="62" width="1" height="1" fill="#DFCBBF" />
<rect x="16" y="62" width="1" height="1" fill="#AA8C94" />
<rect x="13" y="63" width="1" height="1" fill="#AA8C94" />
<rect x="14" y="63" width="1" height="1" fill="#DFCBBF" />
<rect x="15" y="63" width="1" height="1" fill="#FFFFFF" />
<rect x="16" y="63" width="1" height="1" fill="#DFCBBF" />
<rect x="17" y="63" width="1" height="1" fill="#AA8C94" />
<rect x="14" y="64" width="1" height="1" fill="#AA8C94" />
<rect x="15" y="64" width="1" height="1" fill="#FFFFFF" />
<rect x="16" y="64" width="1" height="1" fill="#AA8C94" />
<rect x="15" y="65" width="1" height="1" fill="#FFFFFF" />
<rect x="15" y="66" width="1" height="1" fill="#AA8C94" />
</svg>