<?xml version="1.0" encoding="UTF-8" ?>
<svg version="1.1" width="128" height="4" xmlns="http://www.w3.org/2000/svg" shape-rendering="crispEdges">
<rect x="0" y="0" width="1" height="1" fill="#D04153" />
<rect x="1" y="0" width="1" height="1" fill="#D04153" />
<rect x="2" y="0" width="1" height="1" fill="#D04153" />
<rect x="3" y="0" width="1" height="1" fill="#D04153" />
<rect x="4" y="0" width="1" height="1" fill="#D04153" />
<rect x="5" y="0" width="1" height="1" fill="#D04153" />
<rect x="6" y="0" width="1" height="1" fill="#D04153" />
<rect x="7" y="0" width="1" height="1" fill="#D04153" />
<rect x="8" y="0" width="1" height="1" fill="#D04153" />
<rect x="9" y="0" width="1" height="1" fill="#D04153" />
<rect x="10" y="0" width="1" height="1" fill="#D04153" />
<rect x="11" y="0" width="1" height="1" fill="#D04153" />
<rect x="12" y="0" width="1" height="1" fill="#D04153" />
<rect x="13" y="0" width="1" height="1" fill="#D04153" />
<rect x="14" y="0" width="1" height="1" fill="#D04153" />
<rect x="15" y="0" width="1" height="1" fill="#D04153" />
<rect x="16" y="0" width="1" height="1" fill="#D04153" />
<rect x="17" y="0" width="1" height="1" fill="#D04153" />
<rect x="18" y="0" width="1" height="1" fill="#D04153" />
<rect x="19" y="0" width="1" height="1" fill="#D04153" />
<rect x="20" y="0" width="1" height="1" fill="#D04153" />
<rect x="21" y="0" width="1" height="1" fill="#D04153" />
<rect x="22" y="0" width="1" height="1" fill="#D04153" />
<rect x="23" y="0" width="1" height="1" fill="#D04153" />
<rect x="24" y="0" width="1" height="1" fill="#D04153" />
<rect x="25" y="0" width="1" height="1" fill="#D04153" />
<rect x="26" y="0" width="1" height="1" fill="#D04153" />
<rect x="27" y="0" width="1" height="1" fill="#D04153" />
<rect x="28" y="0" width="1" height="1" fill="#D04153" />
<rect x="29" y="0" width="1" height="1" fill="#D04153" />
<rect x="30" y="0" width="1" height="1" fill="#D04153" />
<rect x="31" y="0" width="1" height="1" fill="#D04153" />
<rect x="32" y="0" width="1" height="1" fill="#D04153" />
<rect x="33" y="0" width="1" height="1" fill="#D04153" />
<rect x="34" y="0" width="1" height="1" fill="#D04153" />
<rect x="35" y="0" width="1" height="1" fill="#D04153" />
<rect x="36" y="0" width="1" height="1" fill="#D04153" />
<rect x="37" y="0" width="1" height="1" fill="#D04153" />
<rect x="38" y="0" width="1" height="1" fill="#D04153" />
<rect x="39" y="0" width="1" height="1" fill="#D04153" />
<rect x="40" y="0" width="1" height="1" fill="#D04153" />
<rect x="41" y="0" width="1" height="1" fill="#D04153" />
<rect x="42" y="0" width="1" height="1" fill="#D04153" />
<rect x="43" y="0" width="1" height="1" fill="#D04153" />
<rect x="44" y="0" width="1" height="1" fill="#D04153" />
<rect x="45" y="0" width="1" height="1" fill="#D04153" />
<rect x="46" y="0" width="1" height="1" fill="#D04153" />
<rect x="47" y="0" width="1" height="1" fill="#D04153" />
<rect x="48" y="0" width="1" height="1" fill="#D04153" />
<rect x="49" y="0" width="1" height="1" fill="#D04153" />
<rect x="50" y="0" width="1" height="1" fill="#D04153" />
<rect x="51" y="0" width="1" height="1" fill="#D04153" />
<rect x="52" y="0" width="1" height="1" fill="#D04153" />
<rect x="53" y="0" width="1" height="1" fill="#D04153" />
<rect x="54" y="0" width="1" height="1" fill="#D04153" />
<rect x="55" y="0" width="1" height="1" fill="#D04153" />
<rect x="56" y="0" width="1" height="1" fill="#D04153" />
<rect x="57" y="0" width="1" height="1" fill="#D04153" />
<rect x="58" y="0" width="1" height="1" fill="#D04153" />
<rect x="59" y="0" width="1" height="1" fill="#D04153" />
<rect x="60" y="0" width="1" height="1" fill="#D04153" />
<rect x="61" y="0" width="1" height="1" fill="#D04153" />
<rect x="62" y="0" width="1" height="1" fill="#D04153" />
<rect x="63" y="0" width="1" height="1" fill="#D04153" />
<rect x="64" y="0" width="1" height="1" fill="#D04153" />
<rect x="65" y="0" width="1" height="1" fill="#D04153" />
<rect x="66" y="0" width="1" height="1" fill="#D04153" />
<rect x="67" y="0" width="1" height="1" fill="#D04153" />
<rect x="68" y="0" width="1" height="1" fill="#D04153" />
<rect x="69" y="0" width="1" height="1" fill="#D04153" />
<rect x="70" y="0" width="1" height="1" fill="#D04153" />
<rect x="71" y="0" width="1" height="1" fill="#D04153" />
<rect x="72" y="0" width="1" height="1" fill="#D04153" />
<rect x="73" y="0" width="1" height="1" fill="#D04153" />
<rect x="74" y="0" width="1" height="1" fill="#D04153" />
<rect x="75" y="0" width="1" height="1" fill="#D04153" />
<rect x="76" y="0" width="1" height="1" fill="#D04153" />
<rect x="77" y="0" width="1" height="1" fill="#D04153" />
<rect x="78" y="0" width="1" height="1" fill="#D04153" />
<rect x="79" y="0" width="1" height="1" fill="#D04153" />
<rect x="80" y="0" width="1" height="1" fill="#D04153" />
<rect x="81" y="0" width="1" height="1" fill="#D04153" />
<rect x="82" y="0" width="1" height="1" fill="#D04153" />
<rect x="83" y="0" width="1" height="1" fill="#D04153" />
<rect x="84" y="0" width="1" height="1" fill="#D04153" />
<rect x="85" y="0" width="1" height="1" fill="#D04153" />
<rect x="86" y="0" width="1" height="1" fill="#D04153" />
<rect x="87" y="0" width="1" height="1" fill="#D04153" />
<rect x="88" y="0" width="1" height="1" fill="#D04153" />
<rect x="89" y="0" width="1" height="1" fill="#D04153" />
<rect x="90" y="0" width="1" height="1" fill="#D04153" />
<rect x="91" y="0" width="1" height="1" fill="#D04153" />
<rect x="92" y="0" width="1" height="1" fill="#D04153" />
<rect x="93" y="0" width="1" height="1" fill="#D04153" />
<rect x="94" y="0" width="1" height="1" fill="#D04153" />
<rect x="95" y="0" width="1" height="1" fill="#D04153" />
<rect x="96" y="0" width="1" height="1" fill="#D04153" />
<rect x="97" y="0" width="1" height="1" fill="#D04153" />
<rect x="98" y="0" width="1" height="1" fill="#D04153" />
<rect x="99" y="0" width="1" height="1" fill="#D04153" />
<rect x="100" y="0" width="1" height="1" fill="#D04153" />
<rect x="101" y="0" width="1" height="1" fill="#D04153" />
<rect x="102" y="0" width="1" height="1" fill="#D04153" />
<rect x="103" y="0" width="1" height="1" fill="#D04153" />
<rect x="104" y="0" width="1" height="1" fill="#D04153" />
<rect x="105" y="0" width="1" height="1" fill="#D04153" />
<rect x="106" y="0" width="1" height="1" fill="#D04153" />
<rect x="107" y="0" width="1" height="1" fill="#D04153" />
<rect x="108" y="0" width="1" height="1" fill="#D04153" />
<rect x="109" y="0" width="1" height="1" fill="#D04153" />
<rect x="110" y="0" width="1" height="1" fill="#D04153" />
<rect x="111" y="0" width="1" height="1" fill="#D04153" />
<rect x="112" y="0" width="1" height="1" fill="#D04153" />
<rect x="113" y="0" width="1" height="1" fill="#D04153" />
<rect x="114" y="0" width="1" height="1" fill="#D04153" />
<rect x="115" y="0" width="1" height="1" fill="#D04153" />
<rect x="116" y="0" width="1" height="1" fill="#D04153" />
<rect x="117" y="0" width="1" height="1" fill="#D04153" />
<rect x="118" y="0" width="1" height="1" fill="#D04153" />
<rect x="119" y="0" width="1" height="1" fill="#D04153" />
<rect x="120" y="0" width="1" height="1" fill="#D04153" />
<rect x="121" y="0" width="1" height="1" fill="#D04153" />
<rect x="122" y="0" width="1" height="1" fill="#D04153" />
<rect x="123" y="0" width="1" height="1" fill="#D04153" />
<rect x="124" y="0" width="1" height="1" fill="#D04153" />
<rect x="125" y="0" width="1" height="1" fill="#D04153" />
<rect x="126" y="0" width="1" height="1" fill="#D04153" />
<rect x="127" y="0" width="1" height="1" fill="#D04153" />
<rect x="0" y="1" width="1" height="1" fill="#495588" />
<rect x="1" y="1" width="1" height="1" fill="#495588" />
<rect x="2" y="1" width="1" height="1" fill="#495588" />
<rect x="3" y="1" width="1" height="1" fill="#495588" />
<rect x="4" y="1" width="1" height="1" fill="#495588" />
<rect x="5" y="1" width="1" height="1" fill="#495588" />
<rect x="6" y="1" width="1" height="1" fill="#495588" />
<rect x="7" y="1" width="1" height="1" fill="#495588" />
<rect x="8" y="1" width="1" height="1" fill="#495588" />
<rect x="9" y="1" width="1" height="1" fill="#495588" />
<rect x="10" y="1" width="1" height="1" fill="#495588" />
<rect x="11" y="1" width="1" height="1" fill="#495588" />
<rect x="12" y="1" width="1" height="1" fill="#495588" />
<rect x="13" y="1" width="1" height="1" fill="#495588" />
<rect x="14" y="1" width="1" height="1" fill="#495588" />
<rect x="15" y="1" width="1" height="1" fill="#495588" />
<rect x="16" y="1" width="1" height="1" fill="#495588" />
<rect x="17" y="1" width="1" height="1" fill="#495588" />
<rect x="18" y="1" width="1" height="1" fill="#495588" />
<rect x="19" y="1" width="1" height="1" fill="#495588" />
<rect x="20" y="1" width="1" height="1" fill="#495588" />
<rect x="21" y="1" width="1" height="1" fill="#495588" />
<rect x="22" y="1" width="1" height="1" fill="#495588" />
<rect x="23" y="1" width="1" height="1" fill="#495588" />
<rect x="24" y="1" width="1" height="1" fill="#495588" />
<rect x="25" y="1" width="1" height="1" fill="#495588" />
<rect x="26" y="1" width="1" height="1" fill="#495588" />
<rect x="27" y="1" width="1" height="1" fill="#495588" />
<rect x="28" y="1" width="1" height="1" fill="#495588" />
<rect x="29" y="1" width="1" height="1" fill="#495588" />
<rect x="30" y="1" width="1" height="1" fill="#495588" />
<rect x="31" y="1" width="1" height="1" fill="#495588" />
<rect x="32" y="1" width="1" height="1" fill="#495588" />
<rect x="33" y="1" width="1" height="1" fill="#495588" />
<rect x="34" y="1" width="1" height="1" fill="#495588" />
<rect x="35" y="1" width="1" height="1" fill="#495588" />
<rect x="36" y="1" width="1" height="1" fill="#495588" />
<rect x="37" y="1" width="1" height="1" fill="#495588" />
<rect x="38" y="1" width="1" height="1" fill="#495588" />
<rect x="39" y="1" width="1" height="1" fill="#495588" />
<rect x="40" y="1" width="1" height="1" fill="#495588" />
<rect x="41" y="1" width="1" height="1" fill="#495588" />
<rect x="42" y="1" width="1" height="1" fill="#495588" />
<rect x="43" y="1" width="1" height="1" fill="#495588" />
<rect x="44" y="1" width="1" height="1" fill="#495588" />
<rect x="45" y="1" width="1" height="1" fill="#495588" />
<rect x="46" y="1" width="1" height="1" fill="#495588" />
<rect x="47" y="1" width="1" height="1" fill="#495588" />
<rect x="48" y="1" width="1" height="1" fill="#495588" />
<rect x="49" y="1" width="1" height="1" fill="#495588" />
<rect x="50" y="1" width="1" height="1" fill="#495588" />
<rect x="51" y="1" width="1" height="1" fill="#495588" />
<rect x="52" y="1" width="1" height="1" fill="#495588" />
<rect x="53" y="1" width="1" height="1" fill="#495588" />
<rect x="54" y="1" width="1" height="1" fill="#495588" />
<rect x="55" y="1" width="1" height="1" fill="#495588" />
<rect x="56" y="1" width="1" height="1" fill="#495588" />
<rect x="57" y="1" width="1" height="1" fill="#495588" />
<rect x="58" y="1" width="1" height="1" fill="#495588" />
<rect x="59" y="1" width="1" height="1" fill="#495588" />
<rect x="60" y="1" width="1" height="1" fill="#495588" />
<rect x="61" y="1" width="1" height="1" fill="#495588" />
<rect x="62" y="1" width="1" height="1" fill="#495588" />
<rect x="63" y="1" width="1" height="1" fill="#495588" />
<rect x="64" y="1" width="1" height="1" fill="#495588" />
<rect x="65" y="1" width="1" height="1" fill="#495588" />
<rect x="66" y="1" width="1" height="1" fill="#495588" />
<rect x="67" y="1" width="1" height="1" fill="#495588" />
<rect x="68" y="1" width="1" height="1" fill="#495588" />
<rect x="69" y="1" width="1" height="1" fill="#495588" />
<rect x="70" y="1" width="1" height="1" fill="#495588" />
<rect x="71" y="1" width="1" height="1" fill="#495588" />
<rect x="72" y="1" width="1" height="1" fill="#495588" />
<rect x="73" y="1" width="1" height="1" fill="#495588" />
<rect x="74" y="1" width="1" height="1" fill="#495588" />
<rect x="75" y="1" width="1" height="1" fill="#495588" />
<rect x="76" y="1" width="1" height="1" fill="#495588" />
<rect x="77" y="1" width="1" height="1" fill="#495588" />
<rect x="78" y="1" width="1" height="1" fill="#495588" />
<rect x="79" y="1" width="1" height="1" fill="#495588" />
<rect x="80" y="1" width="1" height="1" fill="#495588" />
<rect x="81" y="1" width="1" height="1" fill="#495588" />
<rect x="82" y="1" width="1" height="1" fill="#495588" />
<rect x="83" y="1" width="1" height="1" fill="#495588" />
<rect x="84" y="1" width="1" height="1" fill="#495588" />
<rect x="85" y="1" width="1" height="1" fill="#495588" />
<rect x="86" y="1" width="1" height="1" fill="#495588" />
<rect x="87" y="1" width="1" height="1" fill="#495588" />
<rect x="88" y="1" width="1" height="1" fill="#495588" />
<rect x="89" y="1" width="1" height="1" fill="#495588" />
<rect x="90" y="1" width="1" height="1" fill="#495588" />
<rect x="91" y="1" width="1" height="1" fill="#495588" />
<rect x="92" y="1" width="1" height="1" fill="#495588" />
<rect x="93" y="1" width="1" height="1" fill="#495588" />
<rect x="94" y="1" width="1" height="1" fill="#495588" />
<rect x="95" y="1" width="1" height="1" fill="#495588" />
<rect x="96" y="1" width="1" height="1" fill="#495588" />
<rect x="97" y="1" width="1" height="1" fill="#495588" />
<rect x="98" y="1" width="1" height="1" fill="#495588" />
<rect x="99" y="1" width="1" height="1" fill="#495588" />
<rect x="100" y="1" width="1" height="1" fill="#495588" />
<rect x="101" y="1" width="1" height="1" fill="#495588" />
<rect x="102" y="1" width="1" height="1" fill="#495588" />
<rect x="103" y="1" width="1" height="1" fill="#495588" />
<rect x="104" y="1" width="1" height="1" fill="#495588" />
<rect x="105" y="1" width="1" height="1" fill="#495588" />
<rect x="106" y="1" width="1" height="1" fill="#495588" />
<rect x="107" y="1" width="1" height="1" fill="#495588" />
<rect x="108" y="1" width="1" height="1" fill="#495588" />
<rect x="109" y="1" width="1" height="1" fill="#495588" />
<rect x="110" y="1" width="1" height="1" fill="#495588" />
<rect x="111" y="1" width="1" height="1" fill="#495588" />
<rect x="112" y="1" width="1" height="1" fill="#495588" />
<rect x="113" y="1" width="1" height="1" fill="#495588" />
<rect x="114" y="1" width="1" height="1" fill="#495588" />
<rect x="115" y="1" width="1" height="1" fill="#495588" />
<rect x="116" y="1" width="1" height="1" fill="#495588" />
<rect x="117" y="1" width="1" height="1" fill="#495588" />
<rect x="118" y="1" width="1" height="1" fill="#495588" />
<rect x="119" y="1" width="1" height="1" fill="#495588" />
<rect x="120" y="1" width="1" height="1" fill="#495588" />
<rect x="121" y="1" width="1" height="1" fill="#495588" />
<rect x="122" y="1" width="1" height="1" fill="#495588" />
<rect x="123" y="1" width="1" height="1" fill="#495588" />
<rect x="124" y="1" width="1" height="1" fill="#495588" />
<rect x="125" y="1" width="1" height="1" fill="#495588" />
<rect x="126" y="1" width="1" height="1" fill="#495588" />
<rect x="127" y="1" width="1" height="1" fill="#495588" />
<rect x="0" y="2" width="1" height="1" fill="#FFDC6A" />
<rect x="1" y="2" width="1" height="1" fill="#FFDC6A" />
<rect x="2" y="2" width="1" height="1" fill="#FFDC6A" />
<rect x="3" y="2" width="1" height="1" fill="#FFDC6A" />
<rect x="4" y="2" width="1" height="1" fill="#FFDC6A" />
<rect x="5" y="2" width="1" height="1" fill="#FFDC6A" />
<rect x="6" y="2" width="1" height="1" fill="#FFDC6A" />
<rect x="7" y="2" width="1" height="1" fill="#FFDC6A" />
<rect x="8" y="2" width="1" height="1" fill="#FFDC6A" />
<rect x="9" y="2" width="1" height="1" fill="#FFDC6A" />
<rect x="10" y="2" width="1" height="1" fill="#FFDC6A" />
<rect x="11" y="2" width="1" height="1" fill="#FFDC6A" />
<rect x="12" y="2" width="1" height="1" fill="#FFDC6A" />
<rect x="13" y="2" width="1" height="1" fill="#FFDC6A" />
<rect x="14" y="2" width="1" height="1" fill="#FFDC6A" />
<rect x="15" y="2" width="1" height="1" fill="#FFDC6A" />
<rect x="16" y="2" width="1" height="1" fill="#FFDC6A" />
<rect x="17" y="2" width="1" height="1" fill="#FFDC6A" />
<rect x="18" y="2" width="1" height="1" fill="#FFDC6A" />
<rect x="19" y="2" width="1" height="1" fill="#FFDC6A" />
<rect x="20" y="2" width="1" height="1" fill="#FFDC6A" />
<rect x="21" y="2" width="1" height="1" fill="#FFDC6A" />
<rect x="22" y="2" width="1" height="1" fill="#FFDC6A" />
<rect x="23" y="2" width="1" height="1" fill="#FFDC6A" />
<rect x="24" y="2" width="1" height="1" fill="#FFDC6A" />
<rect x="25" y="2" width="1" height="1" fill="#FFDC6A" />
<rect x="26" y="2" width="1" height="1" fill="#FFDC6A" />
<rect x="27" y="2" width="1" height="1" fill="#FFDC6A" />
<rect x="28" y="2" width="1" height="1" fill="#FFDC6A" />
<rect x="29" y="2" width="1" height="1" fill="#FFDC6A" />
<rect x="30" y="2" width="1" height="1" fill="#FFDC6A" />
<rect x="31" y="2" width="1" height="1" fill="#FFDC6A" />
<rect x="32" y="2" width="1" height="1" fill="#FFDC6A" />
<rect x="33" y="2" width="1" height="1" fill="#FFDC6A" />
<rect x="34" y="2" width="1" height="1" fill="#FFDC6A" />
<rect x="35" y="2" width="1" height="1" fill="#FFDC6A" />
<rect x="36" y="2" width="1" height="1" fill="#FFDC6A" />
<rect x="37" y="2" width="1" height="1" fill="#FFDC6A" />
<rect x="38" y="2" width="1" height="1" fill="#FFDC6A" />
<rect x="39" y="2" width="1" height="1" fill="#FFDC6A" />
<rect x="40" y="2" width="1" height="1" fill="#FFDC6A" />
<rect x="41" y="2" width="1" height="1" fill="#FFDC6A" />
<rect x="42" y="2" width="1" height="1" fill="#FFDC6A" />
<rect x="43" y="2" width="1" height="1" fill="#FFDC6A" />
<rect x="44" y="2" width="1" height="1" fill="#FFDC6A" />
<rect x="45" y="2" width="1" height="1" fill="#FFDC6A" />
<rect x="46" y="2" width="1" height="1" fill="#FFDC6A" />
<rect x="47" y="2" width="1" height="1" fill="#FFDC6A" />
<rect x="48" y="2" width="1" height="1" fill="#FFDC6A" />
<rect x="49" y="2" width="1" height="1" fill="#FFDC6A" />
<rect x="50" y="2" width="1" height="1" fill="#FFDC6A" />
<rect x="51" y="2" width="1" height="1" fill="#FFDC6A" />
<rect x="52" y="2" width="1" height="1" fill="#FFDC6A" />
<rect x="53" y="2" width="1" height="1" fill="#FFDC6A" />
<rect x="54" y="2" width="1" height="1" fill="#FFDC6A" />
<rect x="55" y="2" width="1" height="1" fill="#FFDC6A" />
<rect x="56" y="2" width="1" height="1" fill="#FFDC6A" />
<rect x="57" y="2" width="1" height="1" fill="#FFDC6A" />
<rect x="58" y="2" width="1" height="1" fill="#FFDC6A" />
<rect x="59" y="2" width="1" height="1" fill="#FFDC6A" />
<rect x="60" y="2" width="1" height="1" fill="#FFDC6A" />
<rect x="61" y="2" width="1" height="1" fill="#FFDC6A" />
<rect x="62" y="2" width="1" height="1" fill="#FFDC6A" />
<rect x="63" y="2" width="1" height="1" fill="#FFDC6A" />
<rect x="64" y="2" width="1" height="1" fill="#FFDC6A" />
<rect x="65" y="2" width="1" height="1" fill="#FFDC6A" />
<rect x="66" y="2" width="1" height="1" fill="#FFDC6A" />
<rect x="67" y="2" width="1" height="1" fill="#FFDC6A" />
<rect x="68" y="2" width="1" height="1" fill="#FFDC6A" />
<rect x="69" y="2" width="1" height="1" fill="#FFDC6A" />
<rect x="70" y="2" width="1" height="1" fill="#FFDC6A" />
<rect x="71" y="2" width="1" height="1" fill="#FFDC6A" />
<rect x="72" y="2" width="1" height="1" fill="#FFDC6A" />
<rect x="73" y="2" width="1" height="1" fill="#FFDC6A" />
<rect x="74" y="2" width="1" height="1" fill="#FFDC6A" />
<rect x="75" y="2" width="1" height="1" fill="#FFDC6A" />
<rect x="76" y="2" width="1" height="1" fill="#FFDC6A" />
<rect x="77" y="2" width="1" height="1" fill="#FFDC6A" />
<rect x="78" y="2" width="1" height="1" fill="#FFDC6A" />
<rect x="79" y="2" width="1" height="1" fill="#FFDC6A" />
<rect x="80" y="2" width="1" height="1" fill="#FFDC6A" />
<rect x="81" y="2" width="1" height="1" fill="#FFDC6A" />
<rect x="82" y="2" width="1" height="1" fill="#FFDC6A" />
<rect x="83" y="2" width="1" height="1" fill="#FFDC6A" />
<rect x="84" y="2" width="1" height="1" fill="#FFDC6A" />
<rect x="85" y="2" width="1" height="1" fill="#FFDC6A" />
<rect x="86" y="2" width="1" height="1" fill="#FFDC6A" />
<rect x="87" y="2" width="1" height="1" fill="#FFDC6A" />
<rect x="88" y="2" width="1" height="1" fill="#FFDC6A" />
<rect x="89" y="2" width="1" height="1" fill="#FFDC6A" />
<rect x="90" y="2" width="1" height="1" fill="#FFDC6A" />
<rect x="91" y="2" width="1" height="1" fill="#FFDC6A" />
<rect x="92" y="2" width="1" height="1" fill="#FFDC6A" />
<rect x="93" y="2" width="1" height="1" fill="#FFDC6A" />
<rect x="94" y="2" width="1" height="1" fill="#FFDC6A" />
<rect x="95" y="2" width="1" height="1" fill="#FFDC6A" />
<rect x="96" y="2" width="1" height="1" fill="#FFDC6A" />
<rect x="97" y="2" width="1" height="1" fill="#FFDC6A" />
<rect x="98" y="2" width="1" height="1" fill="#FFDC6A" />
<rect x="99" y="2" width="1" height="1" fill="#FFDC6A" />
<rect x="100" y="2" width="1" height="1" fill="#FFDC6A" />
<rect x="101" y="2" width="1" height="1" fill="#FFDC6A" />
<rect x="102" y="2" width="1" height="1" fill="#FFDC6A" />
<rect x="103" y="2" width="1" height="1" fill="#FFDC6A" />
<rect x="104" y="2" width="1" height="1" fill="#FFDC6A" />
<rect x="105" y="2" width="1" height="1" fill="#FFDC6A" />
<rect x="106" y="2" width="1" height="1" fill="#FFDC6A" />
<rect x="107" y="2" width="1" height="1" fill="#FFDC6A" />
<rect x="108" y="2" width="1" height="1" fill="#FFDC6A" />
<rect x="109" y="2" width="1" height="1" fill="#FFDC6A" />
<rect x="110" y="2" width="1" height="1" fill="#FFDC6A" />
<rect x="111" y="2" width="1" height="1" fill="#FFDC6A" />
<rect x="112" y="2" width="1" height="1" fill="#FFDC6A" />
<rect x="113" y="2" width="1" height="1" fill="#FFDC6A" />
<rect x="114" y="2" width="1" height="1" fill="#FFDC6A" />
<rect x="115" y="2" width="1" height="1" fill="#FFDC6A" />
<rect x="116" y="2" width="1" height="1" fill="#FFDC6A" />
<rect x="117" y="2" width="1" height="1" fill="#FFDC6A" />
<rect x="118" y="2" width="1" height="1" fill="#FFDC6A" />
<rect x="119" y="2" width="1" height="1" fill="#FFDC6A" />
<rect x="120" y="2" width="1" height="1" fill="#FFDC6A" />
<rect x="121" y="2" width="1" height="1" fill="#FFDC6A" />
<rect x="122" y="2" width="1" height="1" fill="#FFDC6A" />
<rect x="123" y="2" width="1" height="1" fill="#FFDC6A" />
<rect x="124" y="2" width="1" height="1" fill="#FFDC6A" />
<rect x="125" y="2" width="1" height="1" fill="#FFDC6A" />
<rect x="126" y="2" width="1" height="1" fill="#FFDC6A" />
<rect x="127" y="2" width="1" height="1" fill="#FFDC6A" />
<rect x="0" y="3" width="1" height="1" fill="#8DC156" />
<rect x="1" y="3" width="1" height="1" fill="#8DC156" />
<rect x="2" y="3" width="1" height="1" fill="#8DC156" />
<rect x="3" y="3" width="1" height="1" fill="#8DC156" />
<rect x="4" y="3" width="1" height="1" fill="#8DC156" />
<rect x="5" y="3" width="1" height="1" fill="#8DC156" />
<rect x="6" y="3" width="1" height="1" fill="#8DC156" />
<rect x="7" y="3" width="1" height="1" fill="#8DC156" />
<rect x="8" y="3" width="1" height="1" fill="#8DC156" />
<rect x="9" y="3" width="1" height="1" fill="#8DC156" />
<rect x="10" y="3" width="1" height="1" fill="#8DC156" />
<rect x="11" y="3" width="1" height="1" fill="#8DC156" />
<rect x="12" y="3" width="1" height="1" fill="#8DC156" />
<rect x="13" y="3" width="1" height="1" fill="#8DC156" />
<rect x="14" y="3" width="1" height="1" fill="#8DC156" />
<rect x="15" y="3" width="1" height="1" fill="#8DC156" />
<rect x="16" y="3" width="1" height="1" fill="#8DC156" />
<rect x="17" y="3" width="1" height="1" fill="#8DC156" />
<rect x="18" y="3" width="1" height="1" fill="#8DC156" />
<rect x="19" y="3" width="1" height="1" fill="#8DC156" />
<rect x="20" y="3" width="1" height="1" fill="#8DC156" />
<rect x="21" y="3" width="1" height="1" fill="#8DC156" />
<rect x="22" y="3" width="1" height="1" fill="#8DC156" />
<rect x="23" y="3" width="1" height="1" fill="#8DC156" />
<rect x="24" y="3" width="1" height="1" fill="#8DC156" />
<rect x="25" y="3" width="1" height="1" fill="#8DC156" />
<rect x="26" y="3" width="1" height="1" fill="#8DC156" />
<rect x="27" y="3" width="1" height="1" fill="#8DC156" />
<rect x="28" y="3" width="1" height="1" fill="#8DC156" />
<rect x="29" y="3" width="1" height="1" fill="#8DC156" />
<rect x="30" y="3" width="1" height="1" fill="#8DC156" />
<rect x="31" y="3" width="1" height="1" fill="#8DC156" />
<rect x="32" y="3" width="1" height="1" fill="#8DC156" />
<rect x="33" y="3" width="1" height="1" fill="#8DC156" />
<rect x="34" y="3" width="1" height="1" fill="#8DC156" />
<rect x="35" y="3" width="1" height="1" fill="#8DC156" />
<rect x="36" y="3" width="1" height="1" fill="#8DC156" />
<rect x="37" y="3" width="1" height="1" fill="#8DC156" />
<rect x="38" y="3" width="1" height="1" fill="#8DC156" />
<rect x="39" y="3" width="1" height="1" fill="#8DC156" />
<rect x="40" y="3" width="1" height="1" fill="#8DC156" />
<rect x="41" y="3" width="1" height="1" fill="#8DC156" />
<rect x="42" y="3" width="1" height="1" fill="#8DC156" />
<rect x="43" y="3" width="1" height="1" fill="#8DC156" />
<rect x="44" y="3" width="1" height="1" fill="#8DC156" />
<rect x="45" y="3" width="1" height="1" fill="#8DC156" />
<rect x="46" y="3" width="1" height="1" fill="#8DC156" />
<rect x="47" y="3" width="1" height="1" fill="#8DC156" />
<rect x="48" y="3" width="1" height="1" fill="#8DC156" />
<rect x="49" y="3" width="1" height="1" fill="#8DC156" />
<rect x="50" y="3" width="1" height="1" fill="#8DC156" />
<rect x="51" y="3" width="1" height="1" fill="#8DC156" />
<rect x="52" y="3" width="1" height="1" fill="#8DC156" />
<rect x="53" y="3" width="1" height="1" fill="#8DC156" />
<rect x="54" y="3" width="1" height="1" fill="#8DC156" />
<rect x="55" y="3" width="1" height="1" fill="#8DC156" />
<rect x="56" y="3" width="1" height="1" fill="#8DC156" />
<rect x="57" y="3" width="1" height="1" fill="#8DC156" />
<rect x="58" y="3" width="1" height="1" fill="#8DC156" />
<rect x="59" y="3" width="1" height="1" fill="#8DC156" />
<rect x="60" y="3" width="1" height="1" fill="#8DC156" />
<rect x="61" y="3" width="1" height="1" fill="#8DC156" />
<rect x="62" y="3" width="1" height="1" fill="#8DC156" />
<rect x="63" y="3" width="1" height="1" fill="#8DC156" />
<rect x="64" y="3" width="1" height="1" fill="#8DC156" />
<rect x="65" y="3" width="1" height="1" fill="#8DC156" />
<rect x="66" y="3" width="1" height="1" fill="#8DC156" />
<rect x="67" y="3" width="1" height="1" fill="#8DC156" />
<rect x="68" y="3" width="1" height="1" fill="#8DC156" />
<rect x="69" y="3" width="1" height="1" fill="#8DC156" />
<rect x="70" y="3" width="1" height="1" fill="#8DC156" />
<rect x="71" y="3" width="1" height="1" fill="#8DC156" />
<rect x="72" y="3" width="1" height="1" fill="#8DC156" />
<rect x="73" y="3" width="1" height="1" fill="#8DC156" />
<rect x="74" y="3" width="1" height="1" fill="#8DC156" />
<rect x="75" y="3" width="1" height="1" fill="#8DC156" />
<rect x="76" y="3" width="1" height="1" fill="#8DC156" />
<rect x="77" y="3" width="1" height="1" fill="#8DC156" />
<rect x="78" y="3" width="1" height="1" fill="#8DC156" />
<rect x="79" y="3" width="1" height="1" fill="#8DC156" />
<rect x="80" y="3" width="1" height="1" fill="#8DC156" />
<rect x="81" y="3" width="1" height="1" fill="#8DC156" />
<rect x="82" y="3" width="1" height="1" fill="#8DC156" />
<rect x="83" y="3" width="1" height="1" fill="#8DC156" />
<rect x="84" y="3" width="1" height="1" fill="#8DC156" />
<rect x="85" y="3" width="1" height="1" fill="#8DC156" />
<rect x="86" y="3" width="1" height="1" fill="#8DC156" />
<rect x="87" y="3" width="1" height="1" fill="#8DC156" />
<rect x="88" y="3" width="1" height="1" fill="#8DC156" />
<rect x="89" y="3" width="1" height="1" fill="#8DC156" />
<rect x="90" y="3" width="1" height="1" fill="#8DC156" />
<rect x="91" y="3" width="1" height="1" fill="#8DC156" />
<rect x="92" y="3" width="1" height="1" fill="#8DC156" />
<rect x="93" y="3" width="1" height="1" fill="#8DC156" />
<rect x="94" y="3" width="1" height="1" fill="#8DC156" />
<rect x="95" y="3" width="1" height="1" fill="#8DC156" />
<rect x="96" y="3" width="1" height="1" fill="#8DC156" />
<rect x="97" y="3" width="1" height="1" fill="#8DC156" />
<rect x="98" y="3" width="1" height="1" fill="#8DC156" />
<rect x="99" y="3" width="1" height="1" fill="#8DC156" />
<rect x="100" y="3" width="1" height="1" fill="#8DC156" />
<rect x="101" y="3" width="1" height="1" fill="#8DC156" />
<rect x="102" y="3" width="1" height="1" fill="#8DC156" />
<rect x="103" y="3" width="1" height="1" fill="#8DC156" />
<rect x="104" y="3" width="1" height="1" fill="#8DC156" />
<rect x="105" y="3" width="1" height="1" fill="#8DC156" />
<rect x="106" y="3" width="1" height="1" fill="#8DC156" />
<rect x="107" y="3" width="1" height="1" fill="#8DC156" />
<rect x="108" y="3" width="1" height="1" fill="#8DC156" />
<rect x="109" y="3" width="1" height="1" fill="#8DC156" />
<rect x="110" y="3" width="1" height="1" fill="#8DC156" />
<rect x="111" y="3" width="1" height="1" fill="#8DC156" />
<rect x="112" y="3" width="1" height="1" fill="#8DC156" />
<rect x="113" y="3" width="1" height="1" fill="#8DC156" />
<rect x="114" y="3" width="1" height="1" fill="#8DC156" />
<rect x="115" y="3" width="1" height="1" fill="#8DC156" />
<rect x="116" y="3" width="1" height="1" fill="#8DC156" />
<rect x="117" y="3" width="1" height="1" fill="#8DC156" />
<rect x="118" y="3" width="1" height="1" fill="#8DC156" />
<rect x="119" y="3" width="1" height="1" fill="#8DC156" />
<rect x="120" y="3" width="1" height="1" fill="#8DC156" />
<rect x="121" y="3" width="1" height="1" fill="#8DC156" />
<rect x="122" y="3" width="1" height="1" fill="#8DC156" />
<rect x="123" y="3" width="1" height="1" fill="#8DC156" />
<rect x="124" y="3" width="1" height="1" fill="#8DC156" />
<rect x="125" y="3" width="1" height="1" fill="#8DC156" />
<rect x="126" y="3" width="1" height="1" fill="#8DC156" />
<rect x="127" y="3" width="1" height="1" fill="#8DC156" />
</svg>