<?xml version="1.0" encoding="UTF-8" ?>
<svg version="1.1" width="128" height="72" xmlns="http://www.w3.org/2000/svg" shape-rendering="crispEdges">
<rect x="120" y="0" width="1" height="1" fill="#AA8C94" />
<rect x="121" y="0" width="1" height="1" fill="#DFCBBF" />
<rect x="122" y="0" width="1" height="1" fill="#AA8C94" />
<rect x="121" y="1" width="1" height="1" fill="#AA8C94" />
<rect x="28" y="10" width="1" height="1" fill="#AA8C94" />
<rect x="27" y="11" width="1" height="1" fill="#AA8C94" />
<rect x="28" y="11" width="1" height="1" fill="#DFCBBF" />
<rect x="29" y="11" width="1" height="1" fill="#AA8C94" />
<rect x="83" y="11" width="1" height="1" fill="#AA8C94" />
<rect x="26" y="12" width="1" height="1" fill="#AA8C94" />
<rect x="27" y="12" width="1" height="1" fill="#DFCBBF" />
<rect x="28" y="12" width="1" height="1" fill="#FFFFFF" />
<rect x="29" y="12" width="1" height="1" fill="#DFCBBF" />
<rect x="30" y="12" width="1" height="1" fill="#AA8C94" />
<rect x="82" y="12" width="1" height="1" fill="#AA8C94" />
<rect x="83" y="12" width="1" height="1" fill="#DFCBBF" />
<rect x="84" y="12" width="1" height="1" fill="#AA8C94" />
<rect x="25" y="13" width="1" height="1" fill="#AA8C94" />
<rect x="26" y="13" width="1" height="1" fill="#DFCBBF" />
<rect x="27" y="13" width="1" height="1" fill="#FFFFFF" />
<rect x="28" y="13" width="1" height="1" fill="#FFFFFF" />
<rect x="29" y="13" width="1" height="1" fill="#FFFFFF" />
<rect x="30" y="13" width="1" height="1" fill="#DFCBBF" />
<rect x="31" y="13" width="1" height="1" fill="#AA8C94" />
<rect x="81" y="13" width="1" height="1" fill="#AA8C94" />
<rect x="82" y="13" width="1" height="1" fill="#DFCBBF" />
<rect x="83" y="13" width="1" height="1" fill="#FFFFFF" />
<rect x="84" y="13" width="1" height="1" fill="#DFCBBF" />
<rect x="85" y="13" width="1" height="1" fill="#AA8C94" />
<rect x="26" y="14" width="1" height="1" fill="#AA8C94" />
<rect x="27" y="14" width="1" height="1" fill="#DFCBBF" />
<rect x="28" y="14" width="1" height="1" fill="#FFFFFF" />
<rect x="29" y="14" width="1" height="1" fill="#DFCBBF" />
<rect x="30" y="14" width="1" height="1" fill="#AA8C94" />
<rect x="80" y="14" width="1" height="1" fill="#AA8C94" />
<rect x="81" y="14" width="1" height="1" fill="#DFCBBF" />
<rect x="82" y="14" width="1" height="1" fill="#FFFFFF" />
<rect x="83" y="14" width="1" height="1" fill="#FFFFFF" />
<rect x="84" y="14" width="1" height="1" fill="#FFFFFF" />
<rect x="85" y="14" width="1" height="1" fill="#DFCBBF" />
<rect x="86" y="14" width="1" height="1" fill="#AA8C94" />
<rect x="27" y="15" width="1" height="1" fill="#AA8C94" />
<rect x="28" y="15" width="1" height="1" fill="#DFCBBF" />
<rect x="29" y="15" width="1" height="1" fill="#AA8C94" />
<rect x="81" y="15" width="1" height="1" fill="#AA8C94" />
<rect x="82" y="15" width="1" height="1" fill="#DFCBBF" />
<rect x="83" y="15" width="1" height="1" fill="#FFFFFF" />
<rect x="84" y="15" width="1" height="1" fill="#DFCBBF" />
<rect x="85" y="15" width="1" height="1" fill="#AA8C94" />
<rect x="28" y="16" width="1" height="1" fill="#AA8C94" />
<rect x="82" y="16" width="1" height="1" fill="#AA8C94" />
<rect x="83" y="16" width="1" height="1" fill="#DFCBBF" />
<rect x="84" y="16" width="1" height="1" fill="#AA8C94" />
<rect x="83" y="17" width="1" height="1" fill="#AA8C94" />
<rect x="63" y="25" width="1" height="1" fill="#AA8C94" />
<rect x="62" y="26" width="1" height="1" fill="#AA8C94" />
<rect x="63" y="26" width="1" height="1" fill="#DFCBBF" />
<rect x="64" y="26" width="1" height="1" fill="#AA8C94" />
<rect x="61" y="27" width="1" height="1" fill="#AA8C94" />
<rect x="62" y="27" width="1" height="1" fill="#DFCBBF" />
<rect x="63" y="27" width="1" height="1" fill="#FFFFFF" />
<rect x="64" y="27" width="1" height="1" fill="#DFCBBF" />
<rect x="65" y="27" width="1" height="1" fill="#AA8C94" />
<rect x="60" y="28" width="1" height="1" fill="#AA8C94" />
<rect x="61" y="28" width="1" height="1" fill="#DFCBBF" />
<rect x="62" y="28" width="1" height="1" fill="#FFFFFF" />
<rect x="63" y="28" width="1" height="1" fill="#FFFFFF" />
<rect x="64" y="28" width="1" height="1" fill="#FFFFFF" />
<rect x="65" y="28" width="1" height="1" fill="#DFCBBF" />
<rect x="66" y="28" width="1" height="1" fill="#AA8C94" />
<rect x="61" y="29" width="1" height="1" fill="#AA8C94" />
<rect x="62" y="29" width="1" height="1" fill="#DFCBBF" />
<rect x="63" y="29" width="1" height="1" fill="#FFFFFF" />
<rect x="64" y="29" width="1" height="1" fill="#DFCBBF" />
<rect x="65" y="29" width="1" height="1" fill="#AA8C94" />
<rect x="62" y="30" width="1" height="1" fill="#AA8C94" />
<rect x="63" y="30" width="1" height="1" fill="#DFCBBF" />
<rect x="64" y="30" width="1" height="1" fill="#AA8C94" />
<rect x="63" y="31" width="1" height="1" fill="#AA8C94" />
<rect x="98" y="38" width="1" height="1" fill="#AA8C94" />
<rect x="97" y="39" width="1" height="1" fill="#AA8C94" />
<rect x="98" y="39" width="1" height="1" fill="#DFCBBF" />
<rect x="99" y="39" width="1" height="1" fill="#AA8C94" />
<rect x="96" y="40" width="1" height="1" fill="#AA8C94" />
<rect x="97" y="40" width="1" height="1" fill="#DFCBBF" />
<rect x="98" y="40" width="1" height="1" fill="#FFFFFF" />
<rect x="99" y="40" width="1" height="1" fill="#DFCBBF" />
<rect x="100" y="40" width="1" height="1" fill="#AA8C94" />
<rect x="95" y="41" width="1" height="1" fill="#AA8C94" />
<rect x="96" y="41" width="1" height="1" fill="#DFCBBF" />
<rect x="97" y="41" width="1" height="1" fill="#FFFFFF" />
<rect x="98" y="41" width="1" height="1" fill="#FFFFFF" />
<rect x="99" y="41" width="1" height="1" fill="#FFFFFF" />
<rect x="100" y="41" width="1" height="1" fill="#DFCBBF" />
<rect x="101" y="41" width="1" height="1" fill="#AA8C94" />
<rect x="96" y="42" width="1" height="1" fill="#AA8C94" />
<rect x="97" y="42" width="1" height="1" fill="#DFCBBF" />
<rect x="98" y="42" width="1" height="1" fill="#FFFFFF" />
<rect x="99" y="42" width="1" height="1" fill="#DFCBBF" />
<rect x="100" y="42" width="1" height="1" fill="#AA8C94" />
<rect x="97" y="43" width="1" height="1" fill="#AA8C94" />
<rect x="98" y="43" width="1" height="1" fill="#DFCBBF" />
<rect x="99" y="43" width="1" height="1" fill="#AA8C94" />
<rect x="98" y="44" width="1" height="1" fill="#AA8C94" />
<rect x="65" y="46" width="1" height="1" fill="#AA8C94" />
<rect x="64" y="47" width="1" height="1" fill="#AA8C94" />
<rect x="65" y="47" width="1" height="1" fill="#DFCBBF" />
<rect x="66" y="47" width="1" height="1" fill="#AA8C94" />
<rect x="63" y="48" width="1" height="1" fill="#AA8C94" />
<rect x="64" y="48" width="1" height="1" fill="#DFCBBF" />
<rect x="65" y="48" width="1" height="1" fill="#FFFFFF" />
<rect x="66" y="48" width="1" height="1" fill="#DFCBBF" />
<rect x="67" y="48" width="1" height="1" fill="#AA8C94" />
<rect x="62" y="49" width="1" height="1" fill="#AA8C94" />
<rect x="63" y="49" width="1" height="1" fill="#DFCBBF" />
<rect x="64" y="49" width="1" height="1" fill="#FFFFFF" />
<rect x="65" y="49" width="1" height="1" fill="#FFFFFF" />
<rect x="66" y="49" width="1" height="1" fill="#FFFFFF" />
<rect x="67" y="49" width="1" height="1" fill="#DFCBBF" />
<rect x="68" y="49" width="1" height="1" fill="#AA8C94" />
<rect x="63" y="50" width="1" height="1" fill="#AA8C94" />
<rect x="64" y="50" width="1" height="1" fill="#DFCBBF" />
<rect x="65" y="50" width="1" height="1" fill="#FFFFFF" />
<rect x="66" y="50" width="1" height="1" fill="#DFCBBF" />
<rect x="67" y="50" width="1" height="1" fill="#AA8C94" />
<rect x="64" y="51" width="1" height="1" fill="#AA8C94" />
<rect x="65" y="51" width="1" height="1" fill="#DFCBBF" />
<rect x="66" y="51" width="1" height="1" fill="#AA8C94" />
<rect x="65" y="52" width="1" height="1" fill="#AA8C94" />
<rect x="22" y="54" width="1" height="1" fill="#AA8C94" />
<rect x="21" y="55" width="1" height="1" fill="#AA8C94" />
<rect x="22" y="55" width="1" height="1" fill="#DFCBBF" />
<rect x="23" y="55" width="1" height="1" fill="#AA8C94" />
<rect x="20" y="56" width="1" height="1" fill="#AA8C94" />
<rect x="21" y="56" width="1" height="1" fill="#DFCBBF" />
<rect x="22" y="56" width="1" height="1" fill="#FFFFFF" />
<rect x="23" y="56" width="1" height="1" fill="#DFCBBF" />
<rect x="24" y="56" width="1" height="1" fill="#AA8C94" />
<rect x="19" y="57" width="1" height="1" fill="#AA8C94" />
<rect x="20" y="57" width="1" height="1" fill="#DFCBBF" />
<rect x="21" y="57" width="1" height="1" fill="#FFFFFF" />
<rect x="22" y="57" width="1" height="1" fill="#FFFFFF" />
<rect x="23" y="57" width="1" height="1" fill="#FFFFFF" />
<rect x="24" y="57" width="1" height="1" fill="#DFCBBF" />
<rect x="25" y="57" width="1" height="1" fill="#AA8C94" />
<rect x="20" y="58" width="1" height="1" fill="#AA8C94" />
<rect x="21" y="58" width="1" height="1" fill="#DFCBBF" />
<rect x="22" y="58" width="1" height="1" fill="#FFFFFF" />
<rect x="23" y="58" width="1" height="1" fill="#DFCBBF" />
<rect x="24" y="58" width="1" height="1" fill="#AA8C94" />
<rect x="21" y="59" width="1" height="1" fill="#AA8C94" />
<rect x="22" y="59" width="1" height="1" fill="#DFCBBF" />
<rect x="23" y="59" width="1" height="1" fill="#AA8C94" />
<rect x="47" y="59" width="1" height="1" fill="#AA8C94" />
<rect x="22" y="60" width="1" height="1" fill="#AA8C94" />
<rect x="46" y="60" width="1" height="1" fill="#AA8C94" />
<rect x="47" y="60" width="1" height="1" fill="#DFCBBF" />
<rect x="48" y="60" width="1" height="1" fill="#AA8C94" />
<rect x="45" y="61" width="1" height="1" fill="#AA8C94" />
<rect x="46" y="61" width="1" height="1" fill="#DFCBBF" />
<rect x="47" y="61" width="1" height="1" fill="#FFFFFF" />
<rect x="48" y="61" width="1" height="1" fill="#DFCBBF" />
<rect x="49" y="61" width="1" height="1" fill="#AA8C94" />
<rect x="44" y="62" width="1" height="1" fill="#AA8C94" />
<rect x="45" y="62" width="1" height="1" fill="#DFCBBF" />
<rect x="46" y="62" width="1" height="1" fill="#FFFFFF" />
<rect x="47" y="62" width="1" height="1" fill="#FFFFFF" />
<rect x="48" y="62" width="1" height="1" fill="#FFFFFF" />
<rect x="49" y="62" width="1" height="1" fill="#DFCBBF" />
<rect x="50" y="62" width="1" height="1" fill="#AA8C94" />
<rect x="45" y="63" width="1" height="1" fill="#AA8C94" />
<rect x="46" y="63" width="1" height="1" fill="#DFCBBF" />
<rect x="47" y="63" width="1" height="1" fill="#FFFFFF" />
<rect x="48" y="63" width="1" height="1" fill="#DFCBBF" />
<rect x="49" y="63" width="1" height="1" fill="#AA8C94" />
<rect x="46" y="64" width="1" height="1" fill="#AA8C94" />
<rect x="47" y="64" width="1" height="1" fill="#DFCBBF" />
<rect x="48" y="64" width="1" height="1" fill="#AA8C94" />
<rect x="47" y="65" width="1" height="1" fill="#AA8C94" />
<rect x="121" y="67" width="1" height="1" fill="#AA8C94" />
<rect x="120" y="68" width="1" height="1" fill="#AA8C94" />
<rect x="121" y="68" width="1" height="1" fill="#DFCBBF" />
<rect x="122" y="68" width="1" height="1" fill="#AA8C94" />
<rect x="119" y="69" width="1" height="1" fill="#AA8C94" />
<rect x="120" y="69" width="1" height="1" fill="#DFCBBF" />
<rect x="121" y="69" width="1" height="1" fill="#FFFFFF" />
<rect x="122" y="69" width="1" height="1" fill="#DFCBBF" />
<rect x="123" y="69" width="1" height="1" fill="#AA8C94" />
<rect x="118" y="70" width="1" height="1" fill="#AA8C94" />
<rect x="119" y="70" width="1" height="1" fill="#DFCBBF" />
<rect x="120" y="70" width="1" height="1" fill="#FFFFFF" />
<rect x="121" y="70" width="1" height="1" fill="#FFFFFF" />
<rect x="122" y="70" width="1" height="1" fill="#FFFFFF" />
<rect x="123" y="70" width="1" height="1" fill="#DFCBBF" />
<rect x="124" y="70" width="1" height="1" fill="#AA8C94" />
<rect x="119" y="71" width="1" height="1" fill="#AA8C94" />
<rect x="120" y="71" width="1" height="1" fill="#DFCBBF" />
<rect x="121" y="71" width="1" height="1" fill="#FFFFFF" />
<rect x="122" y="71" width="1" height="1" fill="#DFCBBF" />
<rect x="123" y="71" width="1" height="1" fill="#AA8C94" />
</svg>